<svg width="36" height="33" viewBox="0 0 36 33" fill="none" xmlns="http://www.w3.org/2000/svg">
<path d="M11.7097 10.1041L16.4872 0.63875C16.579 0.448336 16.7223 0.28751 16.901 0.174583C17.0797 0.0616567 17.2865 0.00116655 17.4978 0C17.8982 0 18.2985 0.212187 18.515 0.63875L23.2925 10.1041L34.0069 11.6266C34.274 11.6685 34.5184 11.8014 34.6989 12.0026C34.8794 12.2039 34.985 12.4612 34.9978 12.7312C35.0131 12.911 34.9876 13.0919 34.9232 13.2605C34.8588 13.429 34.7572 13.5809 34.626 13.7047L26.9194 21.0459L28.735 31.3928C28.9057 32.3619 27.9475 33.1209 27.1032 32.6878L17.4978 27.7528L7.8969 32.6878C7.79647 32.7399 7.68883 32.7768 7.57752 32.7972C6.8294 32.9284 6.11627 32.2416 6.26502 31.3928L8.08065 21.0459L0.376274 13.7047C0.256499 13.5914 0.161294 13.4546 0.0965698 13.303C0.0318456 13.1513 -0.00101631 12.988 2.39467e-05 12.8231C0.000137725 12.59 0.0644707 12.3614 0.185961 12.1625C0.272146 12.0183 0.389615 11.8952 0.529701 11.8025C0.669786 11.7097 0.828912 11.6496 0.995337 11.6266L11.7097 10.1041ZM17.4978 25.2153C17.6744 25.2146 17.8485 25.2566 18.0053 25.3378L26.0685 29.4809L24.5503 20.825C24.5145 20.6259 24.5281 20.4211 24.5899 20.2285C24.6516 20.0359 24.7598 19.8614 24.9047 19.7203L31.2638 13.6609L22.4 12.4009C22.2165 12.3732 22.0424 12.3014 21.8927 12.1917C21.743 12.082 21.6221 11.9376 21.5403 11.7709L17.5 3.76906L17.4978 3.77562V25.2131V25.2153Z" fill="url(#paint0_linear_265_19)"/>
<defs>
<linearGradient id="paint0_linear_265_19" x1="17.5011" y1="0" x2="17.5011" y2="32.8133" gradientUnits="userSpaceOnUse">
<stop stop-color="#FD7D00"/>
<stop offset="1" stop-color="#EFA301"/>
</linearGradient>
</defs>
</svg>
