<svg width="33" height="33" viewBox="0 0 33 33" fill="none" xmlns="http://www.w3.org/2000/svg">
<path d="M31.586 11.793L21.916 10.3516L17.5932 1.3633C17.4751 1.1172 17.2809 0.917983 17.041 0.79689C16.4392 0.492202 15.708 0.746108 15.4071 1.3633L11.0843 10.3516L1.41432 11.793C1.14771 11.8321 0.903964 11.961 0.717343 12.1563C0.491728 12.3941 0.367404 12.7141 0.371689 13.0459C0.375974 13.3777 0.508517 13.6942 0.740194 13.9258L7.73658 20.9219L6.08365 30.8008C6.04489 31.0306 6.06968 31.267 6.15522 31.4831C6.24076 31.6991 6.38362 31.8863 6.5676 32.0234C6.75158 32.1604 6.96933 32.2419 7.19614 32.2584C7.42295 32.275 7.64975 32.2261 7.85084 32.1172L16.5001 27.4532L25.1495 32.1172C25.3856 32.2461 25.6598 32.2891 25.9226 32.2422C26.5853 32.125 27.0309 31.4805 26.9166 30.8008L25.2637 20.9219L32.2601 13.9258C32.4505 13.7344 32.5762 13.4844 32.6143 13.211C32.7171 12.5274 32.2525 11.8946 31.586 11.793Z" fill="url(#paint0_linear_265_12)"/>
<defs>
<linearGradient id="paint0_linear_265_12" x1="16.5001" y1="0.667969" x2="16.5001" y2="32.2616" gradientUnits="userSpaceOnUse">
<stop stop-color="#FD7D00"/>
<stop offset="1" stop-color="#EFA301"/>
</linearGradient>
</defs>
</svg>
