<svg width="28" height="23" viewBox="0 0 28 23" fill="none" xmlns="http://www.w3.org/2000/svg">
<path d="M23.3383 1.08442C23.8049 0.623414 24.4259 0.36855 25.0701 0.373609C25.7144 0.378668 26.3316 0.643253 26.7914 1.11153C27.2513 1.57982 27.5178 2.21517 27.5349 2.88352C27.5519 3.55187 27.318 4.20095 26.8827 4.6938L13.6658 21.8469C13.4385 22.1009 13.1642 22.3048 12.8593 22.4463C12.5544 22.5878 12.2251 22.664 11.8911 22.6705C11.5572 22.6769 11.2254 22.6133 10.9156 22.4837C10.6059 22.354 10.3245 22.1608 10.0883 21.9157L1.32344 12.82C1.07935 12.584 0.883573 12.2994 0.747787 11.9831C0.612001 11.6669 0.538987 11.3255 0.533101 10.9793C0.527216 10.6332 0.58858 10.2893 0.71353 9.9683C0.838481 9.64728 1.02446 9.35567 1.26037 9.11085C1.49628 8.86604 1.7773 8.67304 2.08664 8.54337C2.39599 8.41371 2.72734 8.35003 3.06092 8.35614C3.3945 8.36224 3.72347 8.43801 4.02822 8.57892C4.33297 8.71983 4.60724 8.923 4.83469 9.1763L11.7711 16.371L23.2754 1.16005C23.2961 1.13358 23.3182 1.10833 23.3416 1.08442H23.3383Z" fill="#3AAD12"/>
</svg>
