<?xml version="1.0" standalone="no"?>
<!DOCTYPE svg PUBLIC "-//W3C//DTD SVG 20010904//EN"
 "http://www.w3.org/TR/2001/REC-SVG-20010904/DTD/svg10.dtd">
<svg version="1.0" xmlns="http://www.w3.org/2000/svg"
 width="229.000000pt" height="229.000000pt" viewBox="0 0 229.000000 229.000000"
 preserveAspectRatio="xMidYMid meet">
<metadata>
Created by potrace 1.14, written by Peter Selinger 2001-2017
</metadata>
<g transform="translate(0.000000,229.000000) scale(0.100000,-0.100000)"
fill="#000000" stroke="none">
<path d="M337 2221 c-10 -12 -9 -13 3 -6 13 8 13 7 1 -8 -9 -12 -10 -17 -2
-17 8 0 9 -5 2 -18 -7 -13 -7 -22 1 -30 8 -8 8 -15 -2 -27 -8 -10 -9 -15 -1
-15 6 0 11 -5 11 -11 0 -5 -4 -8 -8 -5 -5 3 -9 -1 -9 -9 0 -8 5 -15 10 -15 5
0 4 -7 -3 -15 -9 -11 -9 -15 -1 -15 8 0 9 -5 1 -19 -7 -13 -7 -22 0 -26 5 -3
10 -12 10 -18 0 -7 -4 -6 -10 3 -6 9 -10 10 -10 3 0 -6 5 -15 10 -18 8 -5 7
-12 -2 -23 -11 -13 -11 -14 2 -7 13 8 13 7 1 -8 -10 -13 -10 -17 -1 -17 9 0 9
-4 -1 -17 -10 -11 -10 -14 -1 -9 6 4 12 3 12 -3 0 -5 -6 -11 -12 -14 -10 -3
-10 -7 -1 -19 10 -11 10 -17 0 -28 -10 -10 -9 -11 3 -5 13 8 13 7 1 -8 -10
-13 -10 -17 -1 -17 9 0 9 -4 -1 -17 -10 -11 -10 -14 -1 -9 6 4 12 3 12 -3 0
-5 -6 -11 -12 -14 -10 -3 -10 -7 -1 -19 10 -11 10 -17 0 -28 -10 -10 -9 -11 3
-5 13 8 13 7 1 -8 -10 -13 -10 -17 -1 -17 9 0 9 -4 -1 -17 -10 -11 -10 -14 -1
-9 6 4 12 3 12 -3 0 -5 -6 -11 -12 -14 -10 -4 -10 -7 -1 -18 10 -10 10 -16 0
-28 -10 -12 -9 -13 3 -6 13 8 13 7 1 -8 -10 -13 -10 -17 -1 -17 9 0 9 -4 -1
-17 -10 -11 -10 -14 -1 -9 6 4 12 3 12 -3 0 -5 -6 -11 -12 -14 -10 -3 -10 -7
-1 -19 10 -11 10 -17 0 -28 -10 -10 -9 -11 3 -5 13 8 13 7 1 -8 -10 -13 -10
-17 -1 -17 9 0 9 -4 -1 -17 -10 -11 -10 -14 -1 -9 6 4 12 3 12 -3 0 -5 -6 -11
-12 -14 -10 -3 -10 -7 -1 -19 10 -11 10 -17 0 -28 -10 -10 -9 -11 3 -5 13 8
13 7 1 -8 -9 -11 -10 -17 -2 -17 6 0 11 -5 11 -11 0 -5 -4 -8 -8 -5 -5 3 -9
-1 -9 -9 0 -8 5 -15 10 -15 5 0 4 -7 -3 -15 -9 -11 -9 -15 -1 -15 8 0 9 -5 2
-18 -7 -13 -7 -22 1 -30 8 -8 8 -15 -2 -27 -8 -10 -9 -15 -1 -15 6 0 11 -5 11
-11 0 -5 -4 -8 -8 -5 -5 3 -9 -1 -9 -9 0 -8 5 -15 10 -15 5 0 4 -7 -3 -15 -9
-11 -9 -15 -1 -15 8 0 9 -5 2 -18 -7 -13 -6 -23 2 -32 9 -10 9 -14 0 -17 -7
-3 -13 -9 -13 -14 0 -6 5 -7 11 -3 7 4 7 -1 -1 -16 -8 -15 -8 -20 -1 -16 6 4
11 3 11 -3 0 -5 -6 -11 -12 -14 -10 -3 -10 -7 -1 -19 10 -11 10 -17 0 -28 -10
-10 -9 -11 3 -5 13 8 13 7 1 -8 -10 -13 -10 -17 -1 -17 9 0 9 -4 -1 -17 -10
-11 -10 -14 -1 -9 6 4 12 3 12 -3 0 -5 -6 -11 -12 -14 -10 -3 -10 -7 -1 -19
10 -11 10 -17 0 -28 -10 -10 -9 -11 3 -5 13 8 13 7 1 -8 -10 -13 -10 -17 -1
-17 9 0 9 -4 -1 -17 -10 -11 -10 -14 -1 -9 6 4 12 2 12 -3 0 -6 -6 -11 -12
-11 -9 0 -8 -4 2 -10 10 -6 11 -10 3 -10 -7 0 -13 -5 -13 -11 0 -5 5 -7 11 -3
7 4 7 -1 -1 -16 -8 -15 -8 -20 -1 -16 6 4 11 3 11 -3 0 -5 -6 -11 -12 -14 -10
-3 -10 -7 -1 -19 10 -11 10 -17 0 -28 -10 -10 -9 -11 3 -5 13 8 13 7 1 -8 -10
-13 -10 -17 -1 -17 9 0 9 -4 -1 -17 -10 -11 -10 -14 -1 -9 6 4 12 3 12 -3 0
-5 -6 -11 -12 -14 -10 -3 -10 -7 -1 -19 10 -11 10 -17 0 -28 -10 -10 -9 -11 3
-5 13 8 13 7 1 -8 -10 -13 -10 -17 -1 -17 9 0 9 -4 -1 -17 -10 -11 -10 -14 -1
-9 6 4 12 2 12 -3 0 -6 -4 -11 -10 -11 -5 0 -10 -5 -10 -11 0 -5 6 -7 13 -3 8
5 8 2 -2 -9 -9 -11 -10 -17 -2 -17 6 0 11 -5 11 -11 0 -5 -4 -8 -8 -5 -5 3 -9
-1 -9 -9 0 -8 5 -15 10 -15 5 0 4 -7 -3 -15 -9 -11 -9 -15 -1 -15 8 0 9 -5 2
-18 -7 -13 -7 -22 1 -30 8 -8 8 -15 -2 -27 -8 -10 -9 -15 -1 -15 6 0 11 -5 11
-11 0 -5 -4 -8 -8 -5 -5 3 -9 -1 -9 -9 0 -8 5 -15 10 -15 5 0 4 -7 -3 -15 -9
-11 -9 -15 -1 -15 8 0 9 -5 1 -19 -7 -13 -7 -22 0 -26 5 -3 10 -12 10 -18 0
-7 -4 -6 -10 3 -5 8 -10 11 -10 5 1 -5 6 -17 13 -25 10 -13 47 -16 237 -15
l225 0 3 463 c1 296 6 462 12 462 6 0 10 -6 10 -12 0 -9 4 -8 10 2 8 12 11 13
19 1 7 -11 9 -11 14 0 5 12 7 12 15 0 8 -11 10 -11 14 0 4 12 8 11 23 -1 11
-9 16 -10 11 -2 -8 14 19 12 43 -2 10 -6 12 -5 7 2 -4 7 -1 12 8 12 9 0 16 -6
16 -12 0 -9 3 -9 8 -3 10 15 52 16 52 2 0 -7 4 -6 10 3 8 12 11 13 19 1 7 -11
9 -11 13 0 4 12 8 11 23 -1 11 -9 16 -10 11 -2 -4 6 -3 12 1 12 5 0 15 -6 22
-12 11 -11 13 -10 7 0 -8 14 19 12 43 -2 10 -6 12 -5 7 2 -4 7 -1 12 8 12 9 0
16 -6 16 -12 0 -9 4 -8 10 2 8 13 13 13 31 2 11 -8 18 -9 14 -3 -3 6 1 11 9
11 9 0 16 -6 16 -12 0 -9 3 -9 8 -3 10 15 52 16 52 2 0 -7 4 -6 10 3 8 12 11
13 19 1 7 -11 9 -11 13 0 4 12 8 11 23 -1 11 -9 16 -10 11 -2 -4 6 -3 12 1 12
5 0 15 -6 22 -12 11 -11 13 -10 7 0 -8 14 19 12 43 -2 10 -6 12 -5 7 2 -4 7
-1 12 8 12 9 0 16 -6 16 -12 0 -9 3 -9 8 -3 10 15 52 16 52 2 0 -7 4 -6 10 3
8 12 11 13 19 1 7 -11 9 -11 14 0 5 12 7 12 15 0 8 -11 10 -11 14 0 4 12 8 11
23 -1 11 -9 16 -10 11 -2 -4 6 -3 12 3 12 5 0 13 -4 16 -10 4 -6 13 -5 25 2
14 9 22 9 36 -3 11 -9 15 -9 10 -1 -5 8 0 12 14 12 14 0 19 -4 14 -12 -4 -7 2
-5 13 5 11 9 24 14 28 10 5 -5 3 1 -5 11 -10 13 -10 17 -2 12 14 -8 16 3 3 23
-6 9 -6 22 1 34 8 15 7 18 -4 12 -10 -6 -10 -5 -1 5 10 11 9 16 -5 27 -12 9
-13 12 -2 8 12 -4 15 4 15 39 0 24 -2 43 -5 41 -3 -2 -6 5 -6 15 0 10 3 17 7
14 8 -5 4 70 -5 84 -3 6 -1 14 4 17 7 5 5 12 -7 21 -14 11 -14 13 -2 9 11 -4
15 0 14 16 -1 17 -8 23 -28 23 -15 1 -27 -3 -27 -9 0 -5 -4 -4 -9 3 -4 8 -12
14 -16 14 -4 0 -12 -6 -16 -14 -5 -7 -9 -8 -9 -2 0 14 -30 14 -30 0 0 -6 -4
-5 -9 2 -4 8 -12 14 -16 14 -4 0 -12 -6 -16 -14 -5 -7 -9 -8 -9 -2 0 6 -7 11
-15 11 -8 0 -15 -5 -15 -11 0 -6 -4 -5 -9 2 -11 17 -21 17 -32 0 -5 -7 -9 -8
-9 -2 0 14 -30 14 -30 0 0 -7 -3 -7 -8 -1 -9 13 -42 15 -42 3 0 -6 -8 -4 -17
3 -11 10 -14 10 -9 2 4 -7 3 -13 -3 -13 -5 0 -12 6 -14 13 -4 9 -8 8 -17 -3
-9 -11 -13 -12 -17 -3 -3 10 -10 10 -25 2 -11 -6 -18 -7 -15 -2 3 5 -3 9 -13
9 -10 0 -16 -4 -14 -8 3 -4 1 -8 -5 -8 -5 0 -12 6 -14 13 -4 9 -8 8 -17 -3 -9
-11 -13 -12 -17 -3 -3 10 -10 10 -25 2 -11 -6 -18 -7 -15 -2 3 5 -3 9 -13 9
-10 0 -16 -4 -14 -8 3 -4 1 -8 -5 -8 -5 0 -12 6 -14 13 -4 9 -8 8 -17 -3 -9
-11 -13 -12 -17 -3 -3 10 -10 10 -25 2 -11 -6 -18 -7 -15 -2 3 5 -3 9 -13 9
-10 0 -16 -4 -14 -8 3 -4 1 -8 -5 -8 -5 0 -12 6 -14 13 -4 9 -8 8 -17 -3 -9
-11 -13 -12 -17 -3 -3 10 -10 10 -25 2 -11 -6 -18 -7 -15 -2 3 5 -3 9 -13 9
-10 0 -16 -4 -14 -8 3 -4 1 -8 -5 -8 -5 0 -12 6 -14 13 -4 9 -8 8 -17 -3 -9
-11 -13 -12 -17 -3 -3 9 -10 10 -24 3 -13 -7 -19 -7 -19 0 0 12 -22 9 -32 -5
-5 -6 -8 -6 -8 2 0 12 -17 12 -37 0 -7 -5 -13 -4 -13 1 0 5 -11 7 -25 4 l-25
-4 0 235 0 236 518 0 c630 0 600 -1 583 10 -11 7 -11 9 0 14 12 4 11 7 -1 16
-10 7 -11 11 -2 11 6 0 12 5 12 11 0 5 -4 7 -10 4 -5 -3 -10 -1 -10 4 0 6 5
11 10 11 6 0 10 5 10 11 0 5 -6 7 -12 3 -10 -6 -10 -4 0 7 6 7 12 20 12 28 0
14 -1 14 -10 1 -6 -9 -10 -10 -10 -3 0 6 5 15 11 19 8 4 7 9 -2 15 -10 6 -11
9 -1 9 6 0 12 5 12 11 0 5 -4 7 -10 4 -5 -3 -10 -1 -10 4 0 6 5 11 10 11 6 0
10 5 10 11 0 5 -6 7 -12 3 -10 -6 -10 -4 0 7 6 7 12 20 12 28 0 14 -1 14 -10
1 -6 -9 -10 -10 -10 -3 0 6 5 15 11 19 8 4 7 9 -2 15 -10 6 -11 9 -1 9 6 0 12
5 12 11 0 5 -4 7 -10 4 -5 -3 -10 -1 -10 4 0 6 5 11 10 11 6 0 10 5 10 11 0 5
-6 7 -12 3 -10 -6 -10 -4 0 7 6 7 12 20 12 28 0 14 -1 14 -10 1 -7 -12 -9 -10
-7 7 0 12 5 19 9 17 4 -3 8 0 8 5 0 6 -3 11 -7 12 -5 1 -358 2 -786 3 -667 1
-780 -1 -790 -13z"/>
</g>
</svg>
