<svg width="81" height="81" viewBox="0 0 81 81" fill="none" xmlns="http://www.w3.org/2000/svg">
<circle cx="40.5" cy="40.5" r="39" stroke="white" stroke-width="3"/>
<path d="M50.8746 57.4375H50.6727C27.3383 56.0956 24.0252 36.4069 23.5621 30.3981C23.5248 29.9309 23.58 29.461 23.7246 29.0152C23.8693 28.5694 24.1004 28.1565 24.4049 27.8002C24.7093 27.4439 25.0811 27.1511 25.4989 26.9387C25.9167 26.7264 26.3723 26.5985 26.8396 26.5625H33.3827C33.8584 26.562 34.3232 26.7044 34.717 26.9712C35.1108 27.238 35.4155 27.6168 35.5915 28.0588L37.3965 32.5C37.5703 32.9317 37.6134 33.405 37.5205 33.861C37.4276 34.317 37.2028 34.7357 36.874 35.065L34.3446 37.6181C34.7397 39.8634 35.8149 41.9331 37.4248 43.5473C39.0348 45.1614 41.1016 46.2421 43.3458 46.6431L45.9227 44.09C46.257 43.7648 46.6796 43.5452 47.1379 43.4587C47.5961 43.3721 48.0697 43.4223 48.4996 43.6031L52.9765 45.3963C53.4117 45.5778 53.783 45.8848 54.0432 46.2782C54.3033 46.6715 54.4404 47.1334 54.4371 47.605V53.875C54.4371 54.8198 54.0618 55.726 53.3937 56.3941C52.7256 57.0622 51.8194 57.4375 50.8746 57.4375ZM27.1246 28.9375C26.8096 28.9375 26.5076 29.0626 26.2849 29.2853C26.0622 29.508 25.9371 29.8101 25.9371 30.125V30.22C26.4833 37.25 29.9865 53.875 50.8033 55.0625C50.9593 55.0721 51.1157 55.0509 51.2635 55C51.4113 54.949 51.5475 54.8694 51.6645 54.7657C51.7814 54.662 51.8768 54.5363 51.945 54.3956C52.0132 54.255 52.053 54.1023 52.0621 53.9463V47.605L47.5852 45.8119L44.1771 49.1963L43.6071 49.125C33.2758 47.8306 31.8746 37.4994 31.8746 37.3925L31.8033 36.8225L35.1758 33.4144L33.3946 28.9375H27.1246Z" fill="white"/>
</svg>
