<svg width="425" height="147" viewBox="0 0 425 147" fill="none" xmlns="http://www.w3.org/2000/svg">
<path d="M0.867188 45.3438H-0.132812V46.3438H0.867188V45.3438ZM0.867188 26.3984L0.822787 25.3994L-0.132812 25.4419V26.3984H0.867188ZM19.3242 24.6406L19.1085 23.6642L19.1073 23.6644L19.3242 24.6406ZM32.9961 17.2188L32.2706 16.5305L32.2701 16.531L32.9961 17.2188ZM38.4648 7.0625L39.4247 7.34308L39.4273 7.33396L38.4648 7.0625ZM39.5391 1.39844V0.398438H38.5391V1.39844H39.5391ZM62.6836 1.39844H63.6836V0.398438H62.6836V1.39844ZM62.6836 143V144H63.6836V143H62.6836ZM34.168 143H33.168V144H34.168V143ZM34.168 45.3438H35.168V44.3438H34.168V45.3438ZM1.86719 45.3438V26.3984H-0.132812V45.3438H1.86719ZM0.911588 27.3975C9.69955 27.0069 15.931 26.4191 19.5411 25.6168L19.1073 23.6644C15.6862 24.4247 9.61295 25.0088 0.822787 25.3994L0.911588 27.3975ZM19.5399 25.6171C25.3094 24.3424 30.0526 21.7798 33.722 17.9065L32.2701 16.531C28.9083 20.0796 24.537 22.4649 19.1085 23.6642L19.5399 25.6171ZM33.7216 17.907C36.2646 15.2265 38.1544 11.6887 39.4247 7.34307L37.505 6.78193C36.3013 10.8998 34.5453 14.1328 32.2706 16.5305L33.7216 17.907ZM39.4273 7.33396C40.1468 4.78297 40.5391 2.78229 40.5391 1.39844H38.5391C38.5391 2.48854 38.2152 4.2639 37.5024 6.79104L39.4273 7.33396ZM39.5391 2.39844H62.6836V0.398438H39.5391V2.39844ZM61.6836 1.39844V143H63.6836V1.39844H61.6836ZM62.6836 142H34.168V144H62.6836V142ZM35.168 143V45.3438H33.168V143H35.168ZM34.168 44.3438H0.867188V46.3438H34.168V44.3438ZM137 110.969L136.044 111.263L136.045 111.265L137 110.969ZM169.617 110.969L168.66 110.681L168.658 110.685L169.617 110.969ZM169.617 35.6758L168.662 35.9715L168.664 35.9784L169.617 35.6758ZM191.297 19.4648L190.428 19.9595L190.43 19.9629L191.297 19.4648ZM191.297 127.57L190.431 127.07L190.429 127.074L191.297 127.57ZM115.418 127.57L114.55 128.067L114.552 128.07L115.418 127.57ZM115.418 19.4648L114.551 18.9668L114.549 18.9701L115.418 19.4648ZM131.996 73.5664C131.996 89.8763 133.331 102.462 136.044 111.263L137.956 110.674C135.33 102.158 133.996 89.8086 133.996 73.5664H131.996ZM136.045 111.265C137.422 115.699 139.551 119.117 142.486 121.423C145.428 123.735 149.092 124.859 153.406 124.859V122.859C149.452 122.859 146.248 121.836 143.721 119.85C141.187 117.859 139.247 114.832 137.955 110.672L136.045 111.265ZM153.406 124.859C157.72 124.859 161.371 123.735 164.283 121.419C167.187 119.11 169.266 115.688 170.576 111.252L168.658 110.685C167.43 114.844 165.537 117.867 163.038 119.854C160.546 121.835 157.361 122.859 153.406 122.859V124.859ZM170.575 111.257C173.221 102.458 174.523 89.8753 174.523 73.5664H172.523C172.523 89.8096 171.222 102.162 168.66 110.681L170.575 111.257ZM174.523 73.5664C174.523 56.4865 173.223 43.7289 170.57 35.3732L168.664 35.9784C171.22 44.0289 172.523 56.5317 172.523 73.5664H174.523ZM170.572 35.3801C169.258 31.1324 167.172 27.8578 164.265 25.6507C161.354 23.4411 157.71 22.3711 153.406 22.3711V24.3711C157.371 24.3711 160.563 25.3518 163.056 27.2438C165.552 29.1383 167.438 32.0161 168.662 35.9715L170.572 35.3801ZM153.406 22.3711C149.102 22.3711 145.445 23.4413 142.504 25.6473C139.566 27.8505 137.431 31.1205 136.049 35.3664L137.951 35.9852C139.239 32.0279 141.172 29.1456 143.704 27.2473C146.231 25.3517 149.442 24.3711 153.406 24.3711V22.3711ZM136.049 35.3664C133.329 43.7252 131.996 56.4857 131.996 73.5664H133.996C133.996 56.5325 135.332 44.0326 137.951 35.9852L136.049 35.3664ZM153.406 1.42188C171.18 1.42188 183.423 7.65398 190.428 19.9595L192.166 18.9701C184.718 5.88509 171.701 -0.578125 153.406 -0.578125V1.42188ZM190.43 19.9629C197.597 32.4419 201.234 50.2747 201.234 73.5664H203.234C203.234 50.1133 199.58 31.8784 192.164 18.9668L190.43 19.9629ZM201.234 73.5664C201.234 96.8586 197.597 114.658 190.431 127.07L192.163 128.07C199.58 115.223 203.234 97.019 203.234 73.5664H201.234ZM190.429 127.074C183.425 139.314 171.182 145.516 153.406 145.516V147.516C171.698 147.516 184.715 141.087 192.165 128.067L190.429 127.074ZM153.406 145.516C135.631 145.516 123.353 139.314 116.284 127.07L114.552 128.07C122.067 141.087 135.114 147.516 153.406 147.516V145.516ZM116.286 127.074C109.183 114.66 105.578 96.8596 105.578 73.5664H103.578C103.578 97.018 107.2 115.22 114.55 128.067L116.286 127.074ZM105.578 73.5664C105.578 50.2737 109.183 32.4395 116.287 19.9595L114.549 18.9701C107.2 31.8809 103.578 50.1143 103.578 73.5664H105.578ZM116.285 19.9629C123.355 7.65409 135.633 1.42188 153.406 1.42188V-0.578125C135.112 -0.578125 122.064 5.88497 114.551 18.9668L116.285 19.9629ZM248.328 110.969L247.372 111.263L247.373 111.265L248.328 110.969ZM280.945 110.969L279.988 110.681L279.986 110.685L280.945 110.969ZM280.945 35.6758L279.99 35.9715L279.992 35.9784L280.945 35.6758ZM302.625 19.4648L301.756 19.9595L301.758 19.9629L302.625 19.4648ZM302.625 127.57L301.759 127.07L301.757 127.074L302.625 127.57ZM226.746 127.57L225.878 128.067L225.88 128.07L226.746 127.57ZM226.746 19.4648L225.879 18.9668L225.877 18.9701L226.746 19.4648ZM243.324 73.5664C243.324 89.8763 244.659 102.462 247.372 111.263L249.284 110.674C246.659 102.158 245.324 89.8086 245.324 73.5664H243.324ZM247.373 111.265C248.75 115.699 250.879 119.117 253.814 121.423C256.756 123.735 260.42 124.859 264.734 124.859V122.859C260.78 122.859 257.576 121.836 255.049 119.85C252.515 117.859 250.575 114.832 249.283 110.672L247.373 111.265ZM264.734 124.859C269.048 124.859 272.699 123.735 275.611 121.419C278.515 119.11 280.594 115.688 281.904 111.252L279.986 110.685C278.758 114.844 276.865 117.867 274.366 119.854C271.874 121.835 268.689 122.859 264.734 122.859V124.859ZM281.903 111.257C284.549 102.458 285.852 89.8753 285.852 73.5664H283.852C283.852 89.8096 282.55 102.162 279.988 110.681L281.903 111.257ZM285.852 73.5664C285.852 56.4865 284.551 43.7289 281.898 35.3732L279.992 35.9784C282.548 44.0289 283.852 56.5317 283.852 73.5664H285.852ZM281.901 35.3801C280.586 31.1324 278.501 27.8578 275.593 25.6507C272.682 23.4411 269.038 22.3711 264.734 22.3711V24.3711C268.699 24.3711 271.891 25.3518 274.384 27.2438C276.88 29.1383 278.766 32.0161 279.99 35.9715L281.901 35.3801ZM264.734 22.3711C260.43 22.3711 256.773 23.4413 253.832 25.6473C250.894 27.8505 248.759 31.1205 247.377 35.3664L249.279 35.9852C250.567 32.0279 252.501 29.1456 255.032 27.2473C257.559 25.3517 260.77 24.3711 264.734 24.3711V22.3711ZM247.377 35.3664C244.657 43.7252 243.324 56.4857 243.324 73.5664H245.324C245.324 56.5325 246.66 44.0326 249.279 35.9852L247.377 35.3664ZM264.734 1.42188C282.508 1.42188 294.751 7.65398 301.756 19.9595L303.494 18.9701C296.046 5.88509 283.029 -0.578125 264.734 -0.578125V1.42188ZM301.758 19.9629C308.925 32.4419 312.562 50.2747 312.562 73.5664H314.562C314.562 50.1133 310.908 31.8784 303.492 18.9668L301.758 19.9629ZM312.562 73.5664C312.562 96.8586 308.925 114.658 301.759 127.07L303.491 128.07C310.908 115.223 314.562 97.019 314.562 73.5664H312.562ZM301.757 127.074C294.753 139.314 282.51 145.516 264.734 145.516V147.516C283.026 147.516 296.043 141.087 303.493 128.067L301.757 127.074ZM264.734 145.516C246.959 145.516 234.681 139.314 227.612 127.07L225.88 128.07C233.395 141.087 246.442 147.516 264.734 147.516V145.516ZM227.614 127.074C220.511 114.66 216.906 96.8596 216.906 73.5664H214.906C214.906 97.018 218.528 115.22 225.878 128.067L227.614 127.074ZM216.906 73.5664C216.906 50.2737 220.511 32.4395 227.615 19.9595L225.877 18.9701C218.528 31.8809 214.906 50.1143 214.906 73.5664H216.906ZM227.613 19.9629C234.683 7.65409 246.961 1.42188 264.734 1.42188V-0.578125C246.44 -0.578125 233.393 5.88497 225.879 18.9668L227.613 19.9629ZM359.656 110.969L358.701 111.263L358.701 111.265L359.656 110.969ZM392.273 110.969L391.316 110.681L391.314 110.685L392.273 110.969ZM392.273 35.6758L391.318 35.9715L391.32 35.9784L392.273 35.6758ZM413.953 19.4648L413.084 19.9595L413.086 19.9629L413.953 19.4648ZM413.953 127.57L413.087 127.07L413.085 127.074L413.953 127.57ZM338.074 127.57L337.206 128.067L337.208 128.07L338.074 127.57ZM338.074 19.4648L337.207 18.9668L337.205 18.9701L338.074 19.4648ZM354.652 73.5664C354.652 89.8763 355.987 102.462 358.701 111.263L360.612 110.674C357.987 102.158 356.652 89.8086 356.652 73.5664H354.652ZM358.701 111.265C360.078 115.699 362.207 119.117 365.142 121.423C368.084 123.735 371.748 124.859 376.062 124.859V122.859C372.109 122.859 368.904 121.836 366.378 119.85C363.844 117.859 361.903 114.832 360.611 110.672L358.701 111.265ZM376.062 124.859C380.376 124.859 384.027 123.735 386.939 121.419C389.843 119.11 391.922 115.688 393.232 111.252L391.314 110.685C390.086 114.844 388.193 117.867 385.694 119.854C383.202 121.835 380.017 122.859 376.062 122.859V124.859ZM393.231 111.257C395.877 102.458 397.18 89.8753 397.18 73.5664H395.18C395.18 89.8096 393.878 102.162 391.316 110.681L393.231 111.257ZM397.18 73.5664C397.18 56.4865 395.879 43.7289 393.227 35.3732L391.32 35.9784C393.876 44.0289 395.18 56.5317 395.18 73.5664H397.18ZM393.229 35.3801C391.914 31.1324 389.829 27.8578 386.921 25.6507C384.01 23.4411 380.366 22.3711 376.062 22.3711V24.3711C380.027 24.3711 383.219 25.3518 385.712 27.2438C388.208 29.1383 390.094 32.0161 391.318 35.9715L393.229 35.3801ZM376.062 22.3711C371.759 22.3711 368.101 23.4413 365.16 25.6473C362.222 27.8505 360.087 31.1205 358.705 35.3664L360.607 35.9852C361.895 32.0279 363.829 29.1456 366.36 27.2473C368.887 25.3517 372.098 24.3711 376.062 24.3711V22.3711ZM358.705 35.3664C355.985 43.7252 354.652 56.4857 354.652 73.5664H356.652C356.652 56.5325 357.989 44.0326 360.607 35.9852L358.705 35.3664ZM376.062 1.42188C393.836 1.42188 406.079 7.65398 413.084 19.9595L414.822 18.9701C407.374 5.88509 394.357 -0.578125 376.062 -0.578125V1.42188ZM413.086 19.9629C420.253 32.4419 423.891 50.2747 423.891 73.5664H425.891C425.891 50.1133 422.236 31.8784 414.82 18.9668L413.086 19.9629ZM423.891 73.5664C423.891 96.8586 420.253 114.658 413.087 127.07L414.819 128.07C422.236 115.223 425.891 97.019 425.891 73.5664H423.891ZM413.085 127.074C406.082 139.314 393.838 145.516 376.062 145.516V147.516C394.355 147.516 407.372 141.087 414.821 128.067L413.085 127.074ZM376.062 145.516C358.287 145.516 346.009 139.314 338.94 127.07L337.208 128.07C344.723 141.087 357.77 147.516 376.062 147.516V145.516ZM338.942 127.074C331.84 114.66 328.234 96.8596 328.234 73.5664H326.234C326.234 97.018 329.856 115.22 337.206 128.067L338.942 127.074ZM328.234 73.5664C328.234 50.2737 331.839 32.4395 338.943 19.9595L337.205 18.9701C329.856 31.8809 326.234 50.1143 326.234 73.5664H328.234ZM338.941 19.9629C346.011 7.65409 358.289 1.42188 376.062 1.42188V-0.578125C357.768 -0.578125 344.721 5.88497 337.207 18.9668L338.941 19.9629Z" fill="#00254A" fill-opacity="0.3"/>
</svg>
