<svg width="210" height="147" viewBox="0 0 210 147" fill="none" xmlns="http://www.w3.org/2000/svg">
<path d="M0.400391 143L-0.599281 142.974L-0.625579 144H0.400391V143ZM6.94336 115.168L7.84193 115.607L7.85424 115.582L7.86511 115.556L6.94336 115.168ZM35.0684 85.1875L35.6493 86.0015L35.6504 86.0007L35.0684 85.1875ZM59.9707 65.4609L60.6954 66.15L60.7005 66.1446L59.9707 65.4609ZM32.1387 33.7227L31.2387 33.2866L31.2379 33.2884L32.1387 33.7227ZM29.0137 51.1055V52.1055H29.9735L30.0128 51.1464L29.0137 51.1055ZM1.96289 51.1055L0.963606 51.0677L0.924337 52.1055H1.96289V51.1055ZM8.50586 21.9062L9.39078 22.372L9.39113 22.3713L8.50586 21.9062ZM83.7988 13.2148L83.1135 13.9431L83.1163 13.9457L83.7988 13.2148ZM87.7051 74.0547L86.912 73.4456L86.9085 73.4501L87.7051 74.0547ZM67.4902 92.1211L66.9122 91.3051L66.911 91.3059L67.4902 92.1211ZM56.3574 100.031L56.9365 100.847L56.9366 100.846L56.3574 100.031ZM42.002 110.773L41.3543 110.011L41.3448 110.02L42.002 110.773ZM35.5566 118.488L34.6991 117.974L33.7905 119.488H35.5566V118.488ZM97.373 118.488H98.373V117.488H97.373V118.488ZM97.373 143V144H98.373V143H97.373ZM1.40006 143.026C1.65713 133 3.80863 123.865 7.84193 115.607L6.04479 114.729C1.87496 123.267 -0.335511 132.687 -0.599281 142.974L1.40006 143.026ZM7.86511 115.556C11.7281 106.373 20.9203 96.5129 35.6493 86.0015L34.4875 84.3735C19.6591 94.9558 10.1013 105.083 6.0216 114.78L7.86511 115.556ZM35.6504 86.0007C48.4651 76.8287 56.8437 70.2009 60.6954 66.15L59.246 64.7719C55.5456 68.6636 47.3226 75.1869 34.4863 84.3743L35.6504 86.0007ZM60.7005 66.1446C66.64 59.8046 69.6621 52.7977 69.6621 45.1484H67.6621C67.6621 52.2127 64.8899 58.7474 59.2409 64.7773L60.7005 66.1446ZM69.6621 45.1484C69.6621 38.9632 67.9427 33.7446 64.4488 29.5656L62.9145 30.8484C66.0612 34.6122 67.6621 39.3545 67.6621 45.1484H69.6621ZM64.4488 29.5656C60.9011 25.3223 55.8412 23.25 49.4238 23.25V25.25C55.3762 25.25 59.8215 27.1491 62.9145 30.8484L64.4488 29.5656ZM49.4238 23.25C45.0712 23.25 41.3389 24.0617 38.2743 25.7412C35.1986 27.4268 32.8528 29.9556 31.2387 33.2866L33.0386 34.1587C34.4845 31.1747 36.5495 28.9671 39.2355 27.4951C41.9326 26.017 45.3129 25.25 49.4238 25.25V23.25ZM31.2379 33.2884C29.3875 37.1262 28.3413 43.0916 28.0145 51.0645L30.0128 51.1464C30.3371 43.2339 31.3742 37.6107 33.0394 34.157L31.2379 33.2884ZM29.0137 50.1055H1.96289V52.1055H29.0137V50.1055ZM2.96218 51.1433C3.41454 39.1878 5.57775 29.6167 9.39078 22.372L7.62094 21.4405C3.62146 29.0395 1.4227 38.9346 0.963606 51.0677L2.96218 51.1433ZM9.39113 22.3713C16.6044 8.64082 29.399 1.71484 48.0566 1.71484V-0.285156C28.8237 -0.285156 15.2511 6.91648 7.62059 21.4412L9.39113 22.3713ZM48.0566 1.71484C62.8379 1.71484 74.4855 5.82261 83.1135 13.943L84.4842 12.4866C75.4038 3.94041 63.2233 -0.285156 48.0566 -0.285156V1.71484ZM83.1163 13.9457C91.7409 21.9996 96.0801 32.6909 96.0801 46.125H98.0801C98.0801 32.2153 93.565 20.9665 84.4813 12.484L83.1163 13.9457ZM96.0801 46.125C96.0801 56.3916 93.0247 65.4863 86.912 73.4456L88.4982 74.6638C94.8854 66.347 98.0801 56.8219 98.0801 46.125H96.0801ZM86.9085 73.4501C82.8967 78.7355 76.2532 84.6885 66.9122 91.3051L68.0683 92.9371C77.4773 86.2724 84.3103 80.1812 88.5016 74.6593L86.9085 73.4501ZM66.911 91.3059L55.7782 99.2161L56.9366 100.846L68.0694 92.9363L66.911 91.3059ZM55.7783 99.216C48.8132 104.163 43.9954 107.767 41.3543 110.012L42.6496 111.535C45.2168 109.353 49.9694 105.795 56.9365 100.847L55.7783 99.216ZM41.3448 110.02C38.7257 112.303 36.51 114.956 34.6991 117.974L36.4141 119.003C38.1189 116.162 40.2001 113.671 42.6591 111.527L41.3448 110.02ZM35.5566 119.488H97.373V117.488H35.5566V119.488ZM96.373 118.488V143H98.373V118.488H96.373ZM97.373 142H0.400391V144H97.373V142ZM144.15 110.969L143.195 111.263L143.195 111.265L144.15 110.969ZM176.768 110.969L175.81 110.681L175.809 110.685L176.768 110.969ZM176.768 35.6758L175.812 35.9715L175.814 35.9784L176.768 35.6758ZM198.447 19.4648L197.578 19.9595L197.58 19.9629L198.447 19.4648ZM198.447 127.57L197.581 127.07L197.579 127.074L198.447 127.57ZM122.568 127.57L121.7 128.067L121.702 128.07L122.568 127.57ZM122.568 19.4648L121.701 18.9668L121.699 18.9701L122.568 19.4648ZM139.146 73.5664C139.146 89.8763 140.481 102.462 143.195 111.263L145.106 110.674C142.481 102.158 141.146 89.8086 141.146 73.5664H139.146ZM143.195 111.265C144.573 115.699 146.701 119.117 149.636 121.423C152.578 123.735 156.242 124.859 160.557 124.859V122.859C156.603 122.859 153.398 121.836 150.872 119.85C148.338 117.859 146.397 114.832 145.105 110.672L143.195 111.265ZM160.557 124.859C164.87 124.859 168.521 123.735 171.433 121.419C174.337 119.11 176.416 115.688 177.727 111.252L175.809 110.685C174.58 114.844 172.687 117.867 170.188 119.854C167.696 121.835 164.511 122.859 160.557 122.859V124.859ZM177.725 111.257C180.371 102.458 181.674 89.8753 181.674 73.5664H179.674C179.674 89.8096 178.372 102.162 175.81 110.681L177.725 111.257ZM181.674 73.5664C181.674 56.4865 180.373 43.7289 177.721 35.3732L175.814 35.9784C178.37 44.0289 179.674 56.5317 179.674 73.5664H181.674ZM177.723 35.3801C176.408 31.1324 174.323 27.8578 171.415 25.6507C168.504 23.4411 164.86 22.3711 160.557 22.3711V24.3711C164.521 24.3711 167.713 25.3518 170.206 27.2438C172.702 29.1383 174.588 32.0161 175.812 35.9715L177.723 35.3801ZM160.557 22.3711C156.253 22.3711 152.595 23.4413 149.654 25.6473C146.716 27.8505 144.581 31.1205 143.199 35.3664L145.101 35.9852C146.389 32.0279 148.323 29.1456 150.854 27.2473C153.381 25.3517 156.592 24.3711 160.557 24.3711V22.3711ZM143.199 35.3664C140.48 43.7252 139.146 56.4857 139.146 73.5664H141.146C141.146 56.5325 142.483 44.0326 145.101 35.9852L143.199 35.3664ZM160.557 1.42188C178.33 1.42188 190.574 7.65398 197.578 19.9595L199.316 18.9701C191.868 5.88509 178.851 -0.578125 160.557 -0.578125V1.42188ZM197.58 19.9629C204.748 32.4419 208.385 50.2747 208.385 73.5664H210.385C210.385 50.1133 206.73 31.8784 199.314 18.9668L197.58 19.9629ZM208.385 73.5664C208.385 96.8586 204.747 114.658 197.581 127.07L199.313 128.07C206.731 115.223 210.385 97.019 210.385 73.5664H208.385ZM197.579 127.074C190.576 139.314 178.332 145.516 160.557 145.516V147.516C178.849 147.516 191.866 141.087 199.315 128.067L197.579 127.074ZM160.557 145.516C142.781 145.516 130.503 139.314 123.434 127.07L121.702 128.07C129.217 141.087 142.264 147.516 160.557 147.516V145.516ZM123.436 127.074C116.334 114.66 112.729 96.8596 112.729 73.5664H110.729C110.729 97.018 114.35 115.22 121.7 128.067L123.436 127.074ZM112.729 73.5664C112.729 50.2737 116.333 32.4395 123.437 19.9595L121.699 18.9701C114.35 31.8809 110.729 50.1143 110.729 73.5664H112.729ZM123.436 19.9629C130.505 7.65409 142.784 1.42188 160.557 1.42188V-0.578125C142.262 -0.578125 129.215 5.88497 121.701 18.9668L123.436 19.9629Z" fill="#00254A" fill-opacity="0.3"/>
</svg>
