<svg width="209" height="147" viewBox="0 0 209 147" fill="none" xmlns="http://www.w3.org/2000/svg">
<path d="M0.474609 143L-0.525062 142.974L-0.55136 144H0.474609V143ZM7.01758 115.168L7.91615 115.607L7.92846 115.582L7.93933 115.556L7.01758 115.168ZM35.1426 85.1875L35.7235 86.0015L35.7246 86.0007L35.1426 85.1875ZM60.0449 65.4609L60.7696 66.15L60.7747 66.1446L60.0449 65.4609ZM32.2129 33.7227L31.313 33.2866L31.3121 33.2884L32.2129 33.7227ZM29.0879 51.1055V52.1055H30.0477L30.0871 51.1464L29.0879 51.1055ZM2.03711 51.1055L1.03782 51.0677L0.998556 52.1055H2.03711V51.1055ZM8.58008 21.9062L9.465 22.372L9.46535 22.3713L8.58008 21.9062ZM83.873 13.2148L83.1877 13.9431L83.1905 13.9457L83.873 13.2148ZM87.7793 74.0547L86.9862 73.4456L86.9828 73.4501L87.7793 74.0547ZM67.5645 92.1211L66.9864 91.3051L66.9852 91.3059L67.5645 92.1211ZM56.4316 100.031L57.0107 100.847L57.0108 100.846L56.4316 100.031ZM42.0762 110.773L41.4285 110.011L41.419 110.02L42.0762 110.773ZM35.6309 118.488L34.7734 117.974L33.8647 119.488H35.6309V118.488ZM97.4473 118.488H98.4473V117.488H97.4473V118.488ZM97.4473 143V144H98.4473V143H97.4473ZM1.47428 143.026C1.73134 133 3.88285 123.865 7.91615 115.607L6.11901 114.729C1.94918 123.267 -0.261292 132.687 -0.525062 142.974L1.47428 143.026ZM7.93933 115.556C11.8023 106.373 20.9945 96.5129 35.7235 86.0015L34.5617 84.3735C19.7334 94.9558 10.1755 105.083 6.09582 114.78L7.93933 115.556ZM35.7246 86.0007C48.5393 76.8287 56.9179 70.2009 60.7696 66.15L59.3202 64.7719C55.6199 68.6636 47.3969 75.1869 34.5606 84.3743L35.7246 86.0007ZM60.7747 66.1446C66.7143 59.8046 69.7363 52.7977 69.7363 45.1484H67.7363C67.7363 52.2127 64.9641 58.7474 59.3151 64.7773L60.7747 66.1446ZM69.7363 45.1484C69.7363 38.9632 68.0169 33.7446 64.523 29.5656L62.9887 30.8484C66.1354 34.6122 67.7363 39.3545 67.7363 45.1484H69.7363ZM64.523 29.5656C60.9753 25.3223 55.9155 23.25 49.498 23.25V25.25C55.4504 25.25 59.8958 27.1491 62.9887 30.8484L64.523 29.5656ZM49.498 23.25C45.1454 23.25 41.4131 24.0617 38.3485 25.7412C35.2728 27.4268 32.927 29.9556 31.313 33.2866L33.1128 34.1587C34.5587 31.1747 36.6237 28.9671 39.3097 27.4951C42.0068 26.017 45.3871 25.25 49.498 25.25V23.25ZM31.3121 33.2884C29.4617 37.1262 28.4155 43.0916 28.0887 51.0645L30.0871 51.1464C30.4113 43.2339 31.4484 37.6107 33.1137 34.157L31.3121 33.2884ZM29.0879 50.1055H2.03711V52.1055H29.0879V50.1055ZM3.03639 51.1433C3.48876 39.1878 5.65197 29.6167 9.465 22.372L7.69516 21.4405C3.69568 29.0395 1.49691 38.9346 1.03782 51.0677L3.03639 51.1433ZM9.46535 22.3713C16.6786 8.64082 29.4732 1.71484 48.1309 1.71484V-0.285156C28.8979 -0.285156 15.3253 6.91648 7.69481 21.4412L9.46535 22.3713ZM48.1309 1.71484C62.9121 1.71484 74.5597 5.82261 83.1877 13.943L84.5584 12.4866C75.478 3.94041 63.2975 -0.285156 48.1309 -0.285156V1.71484ZM83.1905 13.9457C91.8152 21.9996 96.1543 32.6909 96.1543 46.125H98.1543C98.1543 32.2153 93.6393 20.9665 84.5556 12.484L83.1905 13.9457ZM96.1543 46.125C96.1543 56.3916 93.0989 65.4863 86.9862 73.4456L88.5724 74.6638C94.9596 66.347 98.1543 56.8219 98.1543 46.125H96.1543ZM86.9828 73.4501C82.971 78.7355 76.3274 84.6885 66.9864 91.3051L68.1425 92.9371C77.5515 86.2724 84.3845 80.1812 88.5758 74.6593L86.9828 73.4501ZM66.9852 91.3059L55.8524 99.2161L57.0108 100.846L68.1437 92.9363L66.9852 91.3059ZM55.8526 99.216C48.8874 104.163 44.0696 107.767 41.4285 110.012L42.7238 111.535C45.291 109.353 50.0436 105.795 57.0107 100.847L55.8526 99.216ZM41.419 110.02C38.7999 112.303 36.5843 114.956 34.7734 117.974L36.4884 119.003C38.1931 116.162 40.2743 113.671 42.7333 111.527L41.419 110.02ZM35.6309 119.488H97.4473V117.488H35.6309V119.488ZM96.4473 118.488V143H98.4473V118.488H96.4473ZM97.4473 142H0.474609V144H97.4473V142ZM138.561 105.109L139.544 104.93L139.394 104.109H138.561V105.109ZM144.908 119.172L144.18 119.857L144.187 119.864L144.908 119.172ZM174.303 116.828L173.501 116.23L173.5 116.232L174.303 116.828ZM174.693 80.207L173.865 80.7667L173.868 80.7717L174.693 80.207ZM150.084 73.957L149.76 73.0109L149.754 73.0132L149.747 73.0156L150.084 73.957ZM140.221 82.6484L140.174 83.6473L140.811 83.6772L141.107 83.1119L140.221 82.6484ZM115.221 81.4766L114.229 81.3502L114.092 82.4247L115.174 82.4755L115.221 81.4766ZM125.182 3.25391V2.25391H124.301L124.19 3.12759L125.182 3.25391ZM203.209 3.25391H204.209V2.25391H203.209V3.25391ZM203.209 26.8867V27.8867H204.209V26.8867H203.209ZM145.299 26.8867V25.8867H144.45L144.312 26.7248L145.299 26.8867ZM140.221 57.8438L139.234 57.6819L138.867 59.9193L140.767 58.6816L140.221 57.8438ZM150.279 52.2773L149.931 51.3398L149.925 51.3421L150.279 52.2773ZM110.826 105.109V104.109H109.75L109.829 105.183L110.826 105.109ZM137.577 105.289C138.706 111.469 140.884 116.355 144.18 119.857L145.636 118.487C142.682 115.348 140.628 110.859 139.544 104.93L137.577 105.289ZM144.187 119.864C147.556 123.374 152.411 125.055 158.58 125.055V123.055C152.77 123.055 148.51 121.48 145.63 118.479L144.187 119.864ZM158.58 125.055C165.743 125.055 171.306 122.537 175.105 117.425L173.5 116.232C170.138 120.755 165.219 123.055 158.58 123.055V125.055ZM175.104 117.426C178.904 112.337 180.771 105.995 180.771 98.4688H178.771C178.771 105.656 176.993 111.553 173.501 116.23L175.104 117.426ZM180.771 98.4688C180.771 91.0827 179.04 84.7882 175.519 79.6423L173.868 80.7717C177.118 85.5217 178.771 91.4017 178.771 98.4688H180.771ZM175.522 79.6474C171.915 74.3054 166.296 71.6875 158.873 71.6875V73.6875C165.773 73.6875 170.701 76.0826 173.865 80.7667L175.522 79.6474ZM158.873 71.6875C155.408 71.6875 152.364 72.1201 149.76 73.0109L150.408 74.9032C152.752 74.1012 155.567 73.6875 158.873 73.6875V71.6875ZM149.747 73.0156C145.14 74.6656 141.661 77.7381 139.335 82.1849L141.107 83.1119C143.208 79.0952 146.304 76.3734 150.421 74.8985L149.747 73.0156ZM140.268 81.6495L115.268 80.4777L115.174 82.4755L140.174 83.6473L140.268 81.6495ZM116.213 81.6029L126.174 3.38023L124.19 3.12759L114.229 81.3502L116.213 81.6029ZM125.182 4.25391H203.209V2.25391H125.182V4.25391ZM202.209 3.25391V26.8867H204.209V3.25391H202.209ZM203.209 25.8867H145.299V27.8867H203.209V25.8867ZM144.312 26.7248L139.234 57.6819L141.208 58.0056L146.286 27.0486L144.312 26.7248ZM140.767 58.6816C145.05 55.8908 148.329 54.0844 150.633 53.2126L149.925 51.3421C147.412 52.2932 143.985 54.1977 139.675 57.0059L140.767 58.6816ZM150.627 53.2149C154.521 51.7704 159.311 51.0312 165.025 51.0312V49.0312C159.151 49.0312 154.11 49.7895 149.931 51.3398L150.627 53.2149ZM165.025 51.0312C176.496 51.0312 186.478 54.8776 195.019 62.5899L196.36 61.1055C187.453 53.0625 176.993 49.0312 165.025 49.0312V51.0312ZM195.019 62.5899C203.478 70.2279 207.775 81.3823 207.775 96.2227H209.775C209.775 80.9849 205.349 69.2226 196.36 61.1055L195.019 62.5899ZM207.775 96.2227C207.775 109.074 203.658 120.538 195.403 130.649L196.952 131.914C205.494 121.452 209.775 109.543 209.775 96.2227H207.775ZM195.403 130.649C187.243 140.644 174.999 145.711 158.482 145.711V147.711C175.429 147.711 188.316 142.491 196.952 131.914L195.403 130.649ZM158.482 145.711C145.192 145.711 134.366 142.152 125.92 135.103L124.639 136.639C133.511 144.043 144.819 147.711 158.482 147.711V145.711ZM125.92 135.103C117.507 128.082 112.784 118.1 111.823 105.036L109.829 105.183C110.821 118.681 115.734 129.207 124.639 136.639L125.92 135.103ZM110.826 106.109H138.561V104.109H110.826V106.109Z" fill="#00254A" fill-opacity="0.3"/>
</svg>
