<svg width="29" height="19" viewBox="0 0 29 19" fill="none" xmlns="http://www.w3.org/2000/svg">
<path fill-rule="evenodd" clip-rule="evenodd" d="M28.0625 9.49976C28.0625 9.75669 27.9604 10.0031 27.7788 10.1848C27.5971 10.3664 27.3507 10.4685 27.0938 10.4685L4.24481 10.4685L10.3421 16.5639C10.524 16.7458 10.6262 16.9925 10.6262 17.2498C10.6262 17.507 10.524 17.7537 10.3421 17.9356C10.1602 18.1175 9.9135 18.2197 9.65625 18.2197C9.399 18.2197 9.15228 18.1175 8.97038 17.9356L1.22038 10.1856C1.13016 10.0956 1.05858 9.98874 1.00974 9.87105C0.960907 9.75336 0.935768 9.62718 0.935768 9.49976C0.935768 9.37233 0.960907 9.24616 1.00974 9.12847C1.05858 9.01078 1.13016 8.90387 1.22038 8.81388L8.97038 1.06388C9.15228 0.881978 9.399 0.779785 9.65625 0.779785C9.9135 0.779785 10.1602 0.881978 10.3421 1.06388C10.524 1.24579 10.6262 1.49251 10.6262 1.74976C10.6262 2.00701 10.524 2.25373 10.3421 2.43563L4.24481 8.53101L27.0938 8.53101C27.3507 8.53101 27.5971 8.63307 27.7788 8.81475C27.9604 8.99643 28.0625 9.24283 28.0625 9.49976Z" fill="#848484"/>
</svg>
