<svg width="46" height="46" viewBox="0 0 46 46" fill="none" xmlns="http://www.w3.org/2000/svg">
<path d="M24.2779 38.3332H5.11122C4.43344 38.3332 3.78343 38.0639 3.30417 37.5847C2.82491 37.1054 2.55566 36.4554 2.55566 35.7776V10.2221C2.55566 9.54428 2.82491 8.89427 3.30417 8.41501C3.78343 7.93575 4.43344 7.6665 5.11122 7.6665H40.889C41.5668 7.6665 42.2168 7.93575 42.696 8.41501C43.1753 8.89427 43.4445 9.54428 43.4445 10.2221V23.4726C41.7423 21.3045 39.2661 19.8804 36.536 19.4993C33.806 19.1182 31.0345 19.8098 28.8035 21.4288C26.5726 23.0479 25.0558 25.4684 24.5717 28.1821C24.0876 30.8958 24.6738 33.6915 26.2073 35.9821L25.019 37.4387L24.2779 38.3332ZM8.94455 15.3332V17.3776H30.6668V15.3332H8.94455ZM8.94455 22.4887H23.0001V20.4443H8.94455V22.4887ZM8.94455 31.4332H21.7223V29.3887H8.94455V31.4332Z" fill="#BB133E"/>
<path d="M43.2271 30.143C43.2305 28.7957 42.8994 27.4687 42.2636 26.2809C41.6277 25.0931 40.7069 24.0817 39.5838 23.3374C38.4608 22.5932 37.1705 22.1394 35.8288 22.0167C34.4871 21.894 33.1359 22.1063 31.8965 22.6346C30.6571 23.1628 29.5682 23.9904 28.7274 25.0432C27.8867 26.096 27.3205 27.341 27.0795 28.6666C26.8385 29.9922 26.9304 31.3568 27.3468 32.6381C27.7632 33.9195 28.4912 35.0774 29.4654 36.008L26.9866 39.0363L28.1366 43.6491L32.8132 37.9502C34.2936 38.3879 35.869 38.3879 37.3493 37.9502L42.026 43.6491L43.176 39.0363L40.6971 36.008C41.4943 35.2529 42.1296 34.3436 42.5645 33.3354C42.9995 32.3272 43.2249 31.241 43.2271 30.143ZM29.5038 30.143C29.4886 29.0355 29.8031 27.9485 30.4073 27.0202C31.0116 26.0919 31.8783 25.3642 32.8971 24.9298C33.916 24.4954 35.0411 24.3738 36.1293 24.5806C37.2174 24.7873 38.2195 25.313 39.0082 26.0907C39.7968 26.8685 40.3362 27.8633 40.558 28.9485C40.7797 30.0337 40.6737 31.1603 40.2534 32.1851C39.8331 33.2099 39.1176 34.0866 38.1977 34.7036C37.2779 35.3206 36.1953 35.6501 35.0877 35.6502C33.6201 35.6537 32.2107 35.0766 31.167 34.0448C30.1234 33.0131 29.53 31.6105 29.5166 30.143H29.5038Z" fill="#BB133E"/>
</svg>
