<svg width="45" height="45" viewBox="0 0 45 45" fill="none" xmlns="http://www.w3.org/2000/svg">
<path d="M37.5002 20.6231H41.2502C41.2502 11.0044 33.9883 3.75 24.3564 3.75V7.5C31.9727 7.5 37.5002 13.0181 37.5002 20.6231Z" fill="#BB133E"/>
<path d="M24.3746 15.0002C28.3177 15.0002 29.9996 16.6821 29.9996 20.6252H33.7496C33.7496 14.5783 30.4214 11.2502 24.3746 11.2502V15.0002ZM30.7908 25.2058C30.4305 24.8784 29.9571 24.7037 29.4704 24.7188C28.9838 24.7338 28.5221 24.9374 28.1827 25.2865L23.6958 29.9008C22.6158 29.6946 20.4446 29.0177 18.2096 26.7883C15.9746 24.5515 15.2977 22.3746 15.0971 21.3021L19.7077 16.8133C20.0572 16.4742 20.2611 16.0124 20.2761 15.5256C20.2912 15.0388 20.1162 14.5653 19.7883 14.2052L12.8602 6.58708C12.5321 6.22587 12.0762 6.00677 11.5892 5.97632C11.1022 5.94586 10.6225 6.10644 10.2521 6.42395L6.1833 9.91333C5.85914 10.2387 5.66565 10.6717 5.63955 11.1302C5.61143 11.599 5.07518 22.7027 13.6852 31.3165C21.1964 38.8258 30.6052 39.3752 33.1964 39.3752C33.5752 39.3752 33.8077 39.364 33.8696 39.3602C34.328 39.3345 34.7608 39.1402 35.0846 38.8146L38.5721 34.744C38.8898 34.3737 39.0507 33.8942 39.0206 33.4072C38.9905 32.9202 38.7717 32.4641 38.4108 32.1358L30.7908 25.2058V25.2058Z" fill="#BB133E"/>
</svg>
