<svg width="54" height="66" viewBox="0 0 54 66" fill="none" xmlns="http://www.w3.org/2000/svg">
<path d="M27 36C31.9706 36 36 31.9706 36 27C36 22.0294 31.9706 18 27 18C22.0294 18 18 22.0294 18 27C18 31.9706 22.0294 36 27 36Z" stroke="#BB133E" stroke-width="4.16667" stroke-linecap="round" stroke-linejoin="round"/>
<path d="M27 3C20.6348 3 14.5303 5.52856 10.0294 10.0294C5.52856 14.5303 3 20.6348 3 27C3 32.676 4.206 36.39 7.5 40.5L27 63L46.5 40.5C49.794 36.39 51 32.676 51 27C51 20.6348 48.4714 14.5303 43.9706 10.0294C39.4697 5.52856 33.3652 3 27 3V3Z" stroke="#BB133E" stroke-width="4.16667" stroke-linecap="round" stroke-linejoin="round"/>
</svg>
