<svg width="53" height="41" viewBox="0 0 53 41" fill="none" xmlns="http://www.w3.org/2000/svg">
<path d="M50.4688 0.21875H2.53125C1.51143 0.21875 0.6875 1.04268 0.6875 2.0625V38.9375C0.6875 39.9573 1.51143 40.7812 2.53125 40.7812H50.4688C51.4886 40.7812 52.3125 39.9573 52.3125 38.9375V2.0625C52.3125 1.04268 51.4886 0.21875 50.4688 0.21875ZM48.1641 6.60273V36.6328H4.83594V6.60273L3.2457 5.36397L5.51006 2.4543L7.97607 4.37295H45.0297L47.4957 2.4543L49.7601 5.36397L48.1641 6.60273ZM45.0297 4.36719L26.5 18.7715L7.97031 4.36719L5.5043 2.44853L3.23994 5.3582L4.83018 6.59697L24.5122 21.9001C25.0782 22.3398 25.7746 22.5785 26.4914 22.5785C27.2081 22.5785 27.9045 22.3398 28.4705 21.9001L48.1641 6.60273L49.7543 5.36397L47.4899 2.4543L45.0297 4.36719Z" fill="#BB133E"/>
</svg>
