<svg width="58" height="58" viewBox="0 0 58 58" fill="none" xmlns="http://www.w3.org/2000/svg">
<path d="M45.121 30.8796C44.8427 30.6008 44.512 30.3796 44.1481 30.2286C43.7842 30.0777 43.394 30 43 30C42.606 30 42.2159 30.0777 41.8519 30.2286C41.488 30.3796 41.1574 30.6008 40.879 30.8796L36.097 35.6616C33.88 35.0016 29.743 33.5016 27.121 30.8796C24.499 28.2576 22.999 24.1206 22.339 21.9036L27.121 17.1216C27.3999 16.8432 27.6211 16.5126 27.772 16.1487C27.9229 15.7847 28.0006 15.3946 28.0006 15.0006C28.0006 14.6066 27.9229 14.2165 27.772 13.8525C27.6211 13.4886 27.3999 13.158 27.121 12.8796L15.121 0.879603C14.8427 0.600766 14.512 0.379553 14.1481 0.22862C13.7842 0.0776882 13.394 0 13 0C12.606 0 12.2159 0.0776882 11.8519 0.22862C11.488 0.379553 11.1574 0.600766 10.879 0.879603L2.74303 9.0156C1.60303 10.1556 0.961025 11.7216 0.985025 13.3206C1.05402 17.5926 2.18503 32.4306 13.879 44.1246C25.573 55.8186 40.411 56.9466 44.686 57.0186H44.77C46.354 57.0186 47.851 56.3946 48.985 55.2606L57.121 47.1246C57.3999 46.8462 57.6211 46.5156 57.772 46.1517C57.9229 45.7877 58.0006 45.3976 58.0006 45.0036C58.0006 44.6096 57.9229 44.2195 57.772 43.8555C57.6211 43.4916 57.3999 43.161 57.121 42.8826L45.121 30.8796ZM44.74 51.0156C40.996 50.9526 28.186 49.9476 18.121 39.8796C8.02302 29.7816 7.04502 16.9266 6.98502 13.2576L13 7.2426L20.758 15.0006L16.879 18.8796C16.5264 19.232 16.2672 19.6666 16.1247 20.1443C15.9822 20.622 15.961 21.1277 16.063 21.6156C16.135 21.9606 17.896 30.1416 22.876 35.1216C27.856 40.1016 36.037 41.8626 36.382 41.9346C36.8697 42.0395 37.3758 42.02 37.854 41.8779C38.3321 41.7358 38.7668 41.4757 39.118 41.1216L43 37.2426L50.758 45.0006L44.74 51.0156Z" fill="#BB133E"/>
</svg>
