<svg width="63" height="63" viewBox="0 0 63 63" fill="none" xmlns="http://www.w3.org/2000/svg">
<path d="M31.5 5.25C17.0258 5.25 5.25 17.0258 5.25 31.5C5.25 45.9742 17.0258 57.75 31.5 57.75C45.9742 57.75 57.75 45.9742 57.75 31.5C57.75 17.0258 45.9742 5.25 31.5 5.25ZM31.5 52.5C19.9211 52.5 10.5 43.0789 10.5 31.5C10.5 19.9211 19.9211 10.5 31.5 10.5C43.0789 10.5 52.5 19.9211 52.5 31.5C52.5 43.0789 43.0789 52.5 31.5 52.5Z" fill="#BB133E"/>
<path d="M34.125 18.375H28.875V34.125H44.625V28.875H34.125V18.375Z" fill="#BB133E"/>
</svg>
