<svg width="11" height="7" viewBox="0 0 11 7" fill="none" xmlns="http://www.w3.org/2000/svg">
<path d="M10.1856 0.993233L5.49996 5.56073L0.81434 0.993233C0.730623 0.911462 0.61824 0.865684 0.501214 0.865684C0.384189 0.865684 0.271806 0.911462 0.18809 0.993233C0.147554 1.03295 0.115351 1.08035 0.0933667 1.13267C0.0713823 1.18499 0.0600586 1.24117 0.0600586 1.29792C0.0600586 1.35467 0.0713823 1.41085 0.0933667 1.46317C0.115351 1.51549 0.147554 1.56289 0.18809 1.60261L5.17278 6.4626C5.26031 6.54793 5.37772 6.59568 5.49996 6.59568C5.62221 6.59568 5.73961 6.54793 5.82715 6.4626L10.8118 1.60355C10.8527 1.5638 10.8851 1.51628 10.9073 1.46379C10.9294 1.41129 10.9408 1.3549 10.9408 1.29792C10.9408 1.24094 10.9294 1.18455 10.9073 1.13205C10.8851 1.07956 10.8527 1.03204 10.8118 0.992295C10.7281 0.910524 10.6157 0.864746 10.4987 0.864746C10.3817 0.864746 10.2693 0.910524 10.1856 0.992295V0.993233Z" fill="#00254A"/>
</svg>
